<?xml version="1.0" standalone="no"?>
<!DOCTYPE svg PUBLIC "-//W3C//DTD SVG 20010904//EN"
 "http://www.w3.org/TR/2001/REC-SVG-20010904/DTD/svg10.dtd">
<svg version="1.0" xmlns="http://www.w3.org/2000/svg"
 width="300.000000pt" height="297.000000pt" viewBox="0 0 300.000000 297.000000"
 preserveAspectRatio="xMidYMid meet">
<metadata>
Created by potrace 1.10, written by Peter Selinger 2001-2011
</metadata>
<g transform="translate(0.000000,297.000000) scale(0.100000,-0.100000)"
fill="#fffafa" stroke="none">
<path d="M982 2755 l-34 -44 51 -110 c28 -60 55 -121 61 -136 17 -45 18 -25 4
55 -7 41 -18 121 -25 178 -7 56 -15 102 -18 102 -3 0 -21 -21 -39 -45z m30
-67 c5 -46 -3 -48 -21 -8 -11 25 -11 33 0 46 15 18 16 16 21 -38z"/>
<path d="M1339 2671 c-33 -26 -44 -64 -27 -95 7 -13 39 -45 71 -71 l57 -46 59
20 c180 62 406 50 611 -32 78 -32 68 -19 -28 36 -215 124 -363 176 -532 188
-63 4 -131 11 -150 14 -27 5 -41 2 -61 -14z m171 -22 c101 0 179 -17 328 -73
88 -33 108 -52 41 -41 -60 10 -226 8 -286 -4 -29 -6 -68 -17 -89 -26 -51 -21
-55 -20 -112 25 -58 46 -70 72 -51 107 13 23 17 25 64 19 27 -4 75 -7 105 -7z"/>
<path d="M753 2476 l-52 -22 166 -70 c196 -81 196 -82 160 -53 -15 11 -68 55
-117 95 -49 41 -93 73 -97 73 -4 -1 -31 -11 -60 -23z m97 -32 c42 -36 31 -41
-25 -14 -34 16 -43 25 -33 31 19 13 24 11 58 -17z"/>
<path d="M1247 2448 c-12 -13 -84 -102 -160 -199 -93 -120 -137 -185 -137
-202 0 -18 14 -37 50 -67 27 -23 53 -39 58 -36 14 9 166 -14 232 -36 70 -22
149 -59 191 -89 l26 -18 111 142 c62 78 112 151 112 163 0 25 -33 56 -182 173
l-118 91 -42 -27 c-93 -58 -191 -160 -244 -253 -49 -86 -34 -90 20 -5 47 72
156 187 216 225 l50 32 92 -73 c51 -40 95 -75 98 -78 3 -4 22 -19 43 -34 22
-17 37 -36 37 -49 0 -25 -35 -73 -134 -188 -7 -8 -23 -30 -36 -47 -23 -31 -44
-42 -52 -25 -4 9 -106 59 -161 78 -60 21 -176 44 -222 44 -58 0 -114 42 -115
85 0 11 10 31 23 45 13 14 27 32 33 41 9 17 39 55 114 148 25 31 58 73 73 93
15 21 37 43 48 48 22 12 59 5 59 -12 0 -5 -27 -36 -59 -69 -33 -32 -76 -86
-96 -119 -43 -71 -87 -178 -75 -185 4 -3 18 20 30 49 34 85 114 199 184 263
l63 57 -35 28 c-42 34 -66 35 -95 6z"/>
<path d="M1587 2437 c-38 -12 -67 -26 -66 -32 2 -9 208 -176 269 -218 59 -41
134 0 128 70 -3 34 -12 44 -108 120 -68 53 -114 82 -130 82 -14 0 -56 -10 -93
-22z m197 -71 c43 -34 84 -66 91 -71 27 -22 27 -54 1 -80 -31 -31 -45 -31 -82
-3 -16 13 -33 26 -39 30 -5 4 -39 31 -75 61 -36 29 -77 61 -92 71 -16 10 -28
22 -28 26 0 11 122 39 135 32 6 -3 45 -33 89 -66z"/>
<path d="M792 1975 c-29 -21 -44 -59 -36 -91 8 -30 503 -417 540 -422 56 -7
106 57 84 107 -15 33 -505 414 -540 419 -14 1 -35 -4 -48 -13z m86 -36 c2 -5
8 -9 13 -9 9 0 36 -20 68 -50 9 -8 41 -33 71 -55 30 -22 62 -45 70 -52 8 -7
67 -53 131 -102 114 -88 137 -118 123 -154 -3 -8 -16 -19 -29 -25 -31 -14 -48
-6 -145 74 -41 33 -104 82 -140 109 -36 27 -76 60 -90 73 -14 12 -41 32 -60
44 -52 32 -110 90 -110 111 0 10 5 27 11 39 9 17 17 19 47 13 21 -4 39 -11 40
-16z"/>
<path d="M1632 1842 c-80 -104 -81 -106 -4 -118 40 -6 76 -35 410 -333 201
-179 386 -343 410 -365 24 -21 47 -35 51 -30 4 5 44 54 88 109 l80 100 -244
170 c-662 461 -656 456 -680 507 -12 25 -26 48 -30 51 -4 2 -41 -39 -81 -91z
m147 -44 c24 -21 45 -38 48 -38 4 0 22 -12 42 -27 20 -16 61 -45 91 -65 117
-80 279 -194 297 -211 11 -9 23 -17 26 -17 8 0 335 -229 341 -239 4 -7 -121
-164 -135 -169 -9 -4 -27 11 -165 137 -54 50 -127 115 -248 221 -22 19 -58 51
-81 72 -264 240 -347 302 -387 290 -5 -1 -8 1 -8 4 0 8 61 85 89 112 l24 24
12 -29 c7 -15 31 -45 54 -65z"/>
<path d="M1126 1881 c69 -62 249 -191 267 -191 13 0 34 12 48 26 l24 26 -30
24 c-50 40 -136 82 -215 103 -80 23 -110 26 -94 12z m200 -77 c58 -27 108 -67
98 -77 -19 -19 -60 -3 -125 48 -38 31 -69 58 -69 61 0 8 38 -5 96 -32z"/>
<path d="M366 1220 c-44 -14 -96 -72 -96 -110 0 -7 154 -10 490 -10 l490 0
-11 28 c-15 41 -58 81 -98 92 -44 12 -734 12 -775 0z m793 -33 c29 -14 48 -43
38 -54 -5 -4 -206 -8 -448 -8 -465 0 -464 0 -421 44 9 11 26 21 37 24 11 3
189 5 395 5 274 1 382 -2 399 -11z"/>
<path d="M2636 1053 c-47 -59 -86 -111 -86 -114 0 -15 62 -31 96 -24 48 9 113
69 123 115 9 43 -2 91 -28 114 -19 17 -22 14 -105 -91z m111 1 c-6 -44 -24
-72 -60 -94 -32 -20 -97 -27 -97 -12 0 10 60 90 105 140 28 31 30 32 43 15 7
-10 11 -32 9 -49z"/>
<path d="M185 1031 c-48 -22 -69 -44 -90 -94 -31 -75 -92 -69 660 -66 372 1
677 5 679 8 2 3 -2 23 -9 45 -18 50 -70 104 -115 116 -21 6 -246 10 -560 10
-488 0 -528 -2 -565 -19z m240 -53 c0 -25 6 -52 14 -61 12 -16 0 -17 -158 -17
-109 0 -171 4 -171 10 0 17 24 53 49 75 37 31 81 40 178 39 l88 -2 0 -44z m96
36 c10 -13 10 -19 0 -36 -10 -17 -10 -23 5 -39 15 -17 15 -19 1 -19 -9 0 -19
9 -22 20 -3 11 -13 20 -21 20 -8 0 -14 -9 -14 -20 0 -11 -4 -20 -10 -20 -5 0
-10 25 -10 55 0 54 1 55 29 55 16 0 34 -7 42 -16z m114 7 c3 -6 -12 -11 -32
-13 -33 -3 -38 -7 -41 -30 -2 -19 3 -30 18 -38 31 -17 52 4 24 25 -18 14 -18
14 9 15 25 0 28 -3 25 -27 -2 -22 -9 -29 -31 -31 -32 -4 -67 21 -67 47 0 31
30 61 60 61 16 0 31 -4 35 -9z m80 -2 c4 -6 1 -10 -6 -8 -44 5 -54 -16 -15
-31 32 -12 41 -28 26 -45 -15 -18 -56 -20 -66 -4 -5 8 1 10 19 5 26 -6 53 14
29 22 -6 2 -22 12 -34 22 -19 15 -20 20 -9 34 15 18 47 21 56 5z m123 -1 c7
-7 12 -19 12 -29 0 -20 -37 -69 -53 -69 -6 0 -4 7 5 17 16 15 16 17 -4 27 -28
15 -32 30 -13 50 19 19 37 20 53 4z m86 -1 c22 -16 18 -75 -6 -91 -42 -26 -79
52 -43 88 20 19 26 20 49 3z m102 -16 c9 -17 9 -32 2 -53 -8 -24 -15 -29 -36
-26 -37 4 -52 47 -28 83 20 31 46 29 62 -4z m64 20 c0 -6 12 -6 28 -2 45 12
178 3 212 -14 30 -16 70 -68 70 -92 0 -10 -44 -13 -185 -13 -102 0 -185 4
-185 9 0 5 7 15 16 22 12 10 15 25 11 56 -4 37 -2 43 14 43 11 0 19 -4 19 -9z
m-324 -62 c8 -9 11 -19 8 -22 -4 -4 -1 -13 6 -22 11 -13 8 -15 -19 -15 -33 0
-39 8 -19 28 9 9 9 18 0 37 -7 15 -9 32 -5 38 5 8 9 5 11 -8 2 -11 10 -27 18
-36z m89 -49 c3 -5 -1 -10 -10 -10 -9 0 -13 5 -10 10 3 6 8 10 10 10 2 0 7 -4
10 -10z"/>
<path d="M470 991 c0 -14 5 -18 20 -14 11 3 20 12 20 19 0 8 -9 14 -20 14 -13
0 -20 -7 -20 -19z"/>
<path d="M792 993 c2 -10 10 -18 18 -18 8 0 16 8 18 18 2 12 -3 17 -18 17 -15
0 -20 -5 -18 -17z"/>
<path d="M884 996 c-8 -22 -1 -59 13 -63 16 -6 35 34 28 57 -7 23 -33 27 -41
6z"/>
<path d="M977 1003 c-11 -10 -8 -61 4 -69 19 -11 42 22 35 50 -6 25 -25 34
-39 19z"/>
<path d="M951 505 c-42 -91 -45 -105 -27 -105 8 0 18 9 21 20 5 15 15 20 45
20 29 0 42 -5 50 -20 11 -21 46 -28 37 -7 -38 92 -73 157 -83 157 -8 0 -27
-29 -43 -65z m47 -33 c-27 -5 -30 1 -17 34 l11 29 13 -30 c12 -27 12 -30 -7
-33z"/>
<path d="M1100 507 c0 -53 4 -67 23 -85 29 -27 71 -28 97 -2 16 16 20 33 20
85 0 50 -3 65 -15 65 -10 0 -15 -16 -17 -61 -2 -46 -8 -65 -20 -73 -34 -21
-53 4 -56 73 -2 45 -7 61 -17 61 -12 0 -15 -15 -15 -63z"/>
<path d="M1305 547 c-56 -48 -20 -147 54 -147 37 0 70 25 55 40 -8 8 -14 9
-18 1 -9 -15 -59 -14 -74 1 -7 7 -12 26 -12 43 0 17 5 36 12 43 15 15 60 16
75 1 16 -16 28 8 13 26 -19 23 -75 18 -105 -8z"/>
<path d="M1440 555 c0 -10 10 -15 28 -15 l27 0 -3 -70 c-3 -62 -2 -70 15 -70
16 0 18 8 17 70 l-1 70 28 0 c19 0 29 5 29 15 0 12 -14 15 -70 15 -56 0 -70
-3 -70 -15z"/>
<path d="M1610 485 c0 -69 3 -85 15 -85 12 0 15 16 15 85 0 69 -3 85 -15 85
-12 0 -15 -16 -15 -85z"/>
<path d="M1705 545 c-52 -51 -16 -145 55 -145 42 0 90 47 90 88 0 71 -95 108
-145 57z m100 -25 c35 -39 -6 -99 -58 -86 -32 8 -45 46 -28 82 14 31 60 33 86
4z"/>
<path d="M1883 485 c2 -76 4 -85 21 -85 16 0 18 6 14 55 -3 30 -2 55 1 55 3
-1 24 -25 45 -55 56 -78 66 -73 66 30 0 76 -2 85 -18 85 -16 0 -18 -7 -14 -57
5 -63 6 -63 -52 10 -56 70 -66 64 -63 -38z"/>
</g>
</svg>
