 <svg  version="1.0" xmlns="http://www.w3.org/2000/svg"  width="300.000000pt" height="297.000000pt" viewBox="0 0 300.000000 297.000000"  preserveAspectRatio="xMidYMid meet">  <g transform="translate(0.000000,297.000000) scale(0.100000,-0.100000)" fill="#000000" stroke="none"> <path d="M982 2756 l-33 -44 57 -128 c31 -71 61 -133 67 -139 7 -7 8 -5 4 6 -3 9 -16 92 -29 183 -13 91 -25 166 -28 166 -3 0 -20 -20 -38 -44z"/> <path d="M1337 2670 c-31 -25 -41 -63 -25 -94 7 -13 39 -45 71 -71 l57 -46 59 20 c180 62 406 50 611 -32 78 -32 69 -20 -28 37 -205 120 -368 176 -537 183 -60 3 -114 9 -119 14 -17 15 -62 10 -89 -11z m163 -30 c101 0 330 -54 330 -78 0 -4 -45 -9 -101 -10 -61 -2 -131 -11 -177 -24 -42 -11 -88 -20 -101 -19 -45 2 -118 81 -105 115 8 21 46 34 72 25 13 -5 50 -9 82 -9z"/> <path d="M753 2476 l-51 -22 165 -69 c192 -82 197 -83 160 -54 -15 11 -68 55 -117 95 -49 41 -93 73 -97 73 -4 -1 -31 -11 -60 -23z"/> <path d="M1247 2448 c-12 -13 -84 -102 -160 -199 -94 -122 -137 -185 -137 -202 0 -18 13 -37 46 -63 41 -34 53 -38 113 -41 118 -6 283 -61 370 -122 l28 -20 111 142 c62 78 112 151 112 163 0 25 -33 56 -182 173 l-118 91 -42 -26 c-63 -40 -124 -96 -179 -165 -51 -62 -96 -139 -82 -139 5 1 37 37 73 81 36 44 77 91 92 104 51 46 119 95 132 95 24 0 266 -195 266 -214 0 -7 -12 -29 -27 -49 -111 -145 -147 -189 -158 -193 -7 -3 -51 12 -97 34 -73 34 -110 48 -155 58 -6 1 -34 7 -63 13 -28 6 -69 11 -91 11 -45 0 -109 40 -109 69 0 16 103 158 183 251 7 8 30 39 52 68 36 48 66 65 79 44 3 -5 -11 -24 -31 -43 -72 -69 -124 -150 -158 -248 -29 -82 -15 -86 24 -6 47 99 111 186 184 250 l55 49 -35 28 c-43 34 -67 35 -96 6z"/> <path d="M1587 2437 c-38 -12 -67 -26 -66 -32 2 -9 208 -176 269 -218 57 -39 130 -2 130 67 0 32 -8 41 -107 120 -71 56 -117 85 -133 85 -14 0 -56 -10 -93 -22z m166 -61 c101 -76 129 -104 125 -127 -8 -59 -59 -47 -163 37 -33 27 -72 58 -87 70 -36 28 -38 46 -8 55 51 15 75 9 133 -35z"/> <path d="M792 1975 c-29 -21 -44 -59 -36 -91 8 -30 503 -417 540 -422 56 -7 106 57 84 107 -15 33 -506 414 -540 419 -14 2 -35 -4 -48 -13z m94 -51 c21 -14 50 -36 64 -49 14 -12 79 -63 145 -113 66 -50 132 -103 147 -117 15 -14 31 -25 36 -25 4 0 23 -16 42 -35 31 -32 33 -36 20 -60 -7 -14 -22 -25 -32 -25 -23 0 -77 34 -144 91 -28 24 -62 52 -75 61 -76 55 -275 212 -286 226 -17 23 -16 37 3 56 21 22 35 20 80 -10z"/> <path d="M1697 1927 c-2 -6 -35 -50 -72 -96 -74 -91 -74 -95 3 -107 40 -6 76 -35 410 -333 201 -179 386 -343 410 -365 24 -21 47 -35 51 -30 4 5 44 54 88 109 l80 100 -244 170 c-662 461 -656 456 -680 507 -24 50 -38 65 -46 45z m49 -110 c22 -23 81 -70 131 -104 50 -34 171 -118 269 -187 98 -68 207 -144 242 -168 34 -24 99 -69 143 -101 l80 -58 -16 -27 c-9 -15 -38 -51 -64 -81 l-47 -53 -158 143 c-88 79 -180 161 -205 183 -25 21 -71 61 -102 90 -31 28 -87 78 -125 112 -38 33 -98 86 -132 117 -35 31 -79 62 -98 69 -19 6 -34 17 -34 23 0 12 58 85 68 85 4 0 25 -19 48 -43z"/> <path d="M1126 1881 c69 -62 249 -191 267 -191 13 0 34 12 48 26 l24 26 -30 24 c-50 40 -136 82 -215 103 -80 23 -110 26 -94 12z m240 -112 c33 -20 44 -39 24 -39 -14 0 -70 42 -70 52 0 12 10 10 46 -13z"/> <path d="M366 1220 c-44 -14 -96 -72 -96 -110 0 -7 154 -10 490 -10 l490 0 -11 28 c-15 41 -58 81 -98 92 -44 12 -734 12 -775 0z m795 -49 c13 -11 20 -23 16 -28 -11 -10 -821 -13 -837 -3 -16 10 -4 29 24 40 11 5 190 9 397 9 357 1 378 0 400 -18z"/> <path d="M2637 1054 c-48 -60 -87 -112 -87 -115 0 -15 62 -31 95 -25 100 19 162 152 102 222 l-23 27 -87 -109z m95 24 c15 -41 -33 -111 -84 -123 -39 -10 -37 15 5 68 49 64 71 79 79 55z"/> <path d="M185 1031 c-48 -22 -69 -44 -90 -94 -32 -76 -94 -70 660 -65 371 2 676 7 676 11 9 50 -61 140 -119 157 -23 6 -237 10 -562 10 -488 0 -528 -2 -565 -19z m336 -17 c10 -13 10 -19 0 -36 -10 -17 -10 -23 5 -39 13 -15 14 -19 3 -19 -8 0 -20 9 -27 20 -7 11 -17 20 -22 20 -6 0 -10 -9 -10 -20 0 -11 -4 -20 -10 -20 -5 0 -10 25 -10 55 0 54 1 55 29 55 16 0 34 -7 42 -16z m114 7 c3 -6 -12 -11 -32 -13 -33 -3 -38 -7 -41 -31 -3 -21 2 -29 20 -36 32 -12 48 5 22 24 -18 14 -18 14 9 15 25 0 28 -3 25 -27 -2 -22 -9 -29 -31 -31 -55 -6 -86 50 -50 90 17 19 68 25 78 9z m85 -1 c0 -5 -11 -10 -25 -10 -33 0 -31 -11 6 -32 38 -22 36 -52 -5 -56 -16 -2 -34 2 -40 9 -8 9 -5 10 16 5 26 -6 54 14 30 22 -6 2 -22 12 -34 22 -19 15 -20 20 -9 34 15 17 61 22 61 6z m124 -12 c13 -22 -19 -88 -42 -88 -13 0 -12 3 2 19 16 17 16 19 -4 24 -26 7 -36 33 -19 53 15 19 48 15 63 -8z m85 8 c17 -20 10 -77 -11 -90 -26 -16 -52 4 -56 41 -5 49 40 81 67 49z m99 -16 c20 -36 2 -80 -32 -80 -43 0 -61 57 -29 92 21 24 44 20 61 -12z m-617 1 c4 -3 9 -25 13 -48 l6 -43 -144 0 c-90 0 -147 4 -151 10 -9 14 19 56 47 72 44 24 209 31 229 9z m927 -18 c20 -16 38 -40 40 -52 3 -21 1 -21 -161 -21 l-165 0 5 43 c3 23 9 47 14 52 4 6 54 10 118 9 108 -1 112 -1 149 -31z"/> <path d="M470 995 c0 -8 9 -15 20 -15 11 0 20 7 20 15 0 8 -9 15 -20 15 -11 0 -20 -7 -20 -15z"/> <path d="M794 999 c-3 -6 -2 -15 4 -21 13 -13 32 -2 32 18 0 16 -26 19 -36 3z"/> <path d="M887 1003 c-13 -13 -7 -61 8 -67 18 -7 35 28 27 56 -4 18 -23 24 -35 11z"/> <path d="M977 1003 c-12 -11 -7 -50 7 -62 12 -10 17 -8 26 9 19 35 -8 79 -33 53z"/> <path d="M945 494 c-19 -42 -35 -80 -35 -85 0 -18 29 -8 35 11 5 15 15 20 45 20 29 0 42 -5 50 -20 11 -21 46 -28 37 -7 -39 93 -73 157 -84 157 -7 0 -29 -34 -48 -76z m75 -16 c0 -5 -11 -8 -25 -8 -29 0 -29 -1 -14 37 l11 28 13 -25 c8 -14 14 -28 15 -32z"/> <path d="M1100 507 c0 -53 4 -67 23 -85 29 -27 71 -28 97 -2 16 16 20 33 20 85 0 50 -3 65 -15 65 -10 0 -15 -16 -17 -61 -2 -46 -8 -65 -20 -73 -34 -21 -53 4 -56 73 -2 45 -7 61 -17 61 -12 0 -15 -15 -15 -63z"/> <path d="M1305 547 c-56 -48 -20 -147 54 -147 37 0 70 25 55 40 -8 8 -14 9 -18 1 -9 -15 -59 -14 -74 1 -7 7 -12 26 -12 43 0 17 5 36 12 43 15 15 60 16 76 0 9 -9 13 -7 18 6 15 40 -69 50 -111 13z"/> <path d="M1440 555 c0 -10 10 -15 28 -15 l27 0 -3 -70 c-3 -66 -3 -70 18 -70 21 0 22 3 18 70 l-4 70 28 0 c18 0 28 5 28 15 0 12 -14 15 -70 15 -56 0 -70 -3 -70 -15z"/> <path d="M1610 485 c0 -69 3 -85 15 -85 12 0 15 16 15 85 0 69 -3 85 -15 85 -12 0 -15 -16 -15 -85z"/> <path d="M1705 545 c-52 -51 -16 -145 55 -145 43 0 90 47 90 90 0 44 -39 80 -85 80 -25 0 -44 -8 -60 -25z m100 -25 c35 -39 -6 -99 -58 -86 -32 8 -45 46 -28 82 14 31 60 33 86 4z"/> <path d="M1885 485 c-1 -77 1 -85 18 -85 17 0 19 6 15 55 -3 30 -2 55 1 55 3 -1 24 -25 45 -55 56 -78 66 -73 66 30 0 77 -2 85 -19 85 -18 0 -19 -5 -14 -57 6 -63 7 -64 -51 10 -21 26 -44 47 -50 47 -7 0 -11 -28 -11 -85z"/> </g> </svg> 